<?xml version="1.0" encoding="UTF-8"?>
<svg width="120px" height="18px" viewBox="0 0 120 18" version="1.1" xmlns="http://www.w3.org/2000/svg" xmlns:xlink="http://www.w3.org/1999/xlink">
    <!-- Generator: Sketch 52.5 (67469) - http://www.bohemiancoding.com/sketch -->
    <title>Logo-instock</title>
    <desc>Created with Sketch.</desc>
    <g id="InStock" stroke="none" stroke-width="1" fill="none" fill-rule="evenodd">
        <g id="Navigation/InStock/Default" transform="translate(-180.000000, -31.000000)" fill="#FAFAFA">
            <g id="Logo-instock" transform="translate(180.000000, 31.000000)">
                <path d="M38.2532133,2.81451373 L38.2532133,17.1009047 L34.8324806,17.1009047 L34.8324806,2.81451373 L38.2532133,2.81451373 Z M41.2373373,17.1009047 L41.2373373,2.81451373 L44.65807,2.81451373 L50.975954,11.5492965 L50.975954,2.81451373 L54.379234,2.81451373 L54.379234,17.1009047 L50.975954,17.1009047 L44.65807,8.3661219 L44.65807,17.1009047 L41.2373373,17.1009047 Z M64.5887833,6.47137509 C64.2164568,6.14295066 63.8441359,5.89979392 63.4718093,5.74189756 C63.0994828,5.5840012 62.7387969,5.50505421 62.3897408,5.50505421 C61.9476031,5.50505421 61.5869172,5.61873788 61.3076723,5.84610864 C61.0284274,6.07347939 60.888807,6.37032009 60.888807,6.73663964 C60.888807,6.98927381 60.9586172,7.19769388 61.0982397,7.36190609 C61.2378621,7.5261183 61.4211138,7.66822289 61.6480003,7.78822412 C61.8748868,7.90822535 62.1308574,8.01243539 62.4159199,8.10085735 C62.7009824,8.18927931 62.9831318,8.2840157 63.2623767,8.38506937 C64.3793563,8.78928404 65.1967171,9.32928148 65.7144836,10.0050779 C66.2322502,10.6808743 66.4911296,11.5619228 66.4911296,12.6482497 C66.4911296,13.3808888 66.377688,14.0440436 66.1508016,14.6377339 C65.9239151,15.2314242 65.5923168,15.7398428 65.1559966,16.163005 C64.7196765,16.5861673 64.1844652,16.9145868 63.5503466,17.1482734 C62.916228,17.38196 62.1977649,17.4988015 61.3949359,17.4988015 C59.7311018,17.4988015 58.1894604,16.961962 56.7699656,15.8882668 L58.2359939,12.8945668 C58.7479428,13.3872034 59.2540666,13.7535175 59.7543804,13.9935199 C60.2546941,14.2335224 60.7491829,14.3535218 61.2378614,14.3535218 C61.7963512,14.3535218 62.2123035,14.2145751 62.4857308,13.9366775 C62.759158,13.6587799 62.8958696,13.342992 62.8958696,12.9893041 C62.8958696,12.7745651 62.8609646,12.5882502 62.7911533,12.4303538 C62.7213421,12.2724575 62.6049918,12.127195 62.442099,11.994562 C62.2792061,11.8619291 62.0668668,11.7387718 61.8050748,11.6250864 C61.5432827,11.511401 61.2262281,11.3850859 60.8539016,11.2461371 C60.4117639,11.0945566 59.978359,10.9271889 59.5536741,10.7440292 C59.1289892,10.5608694 58.7508507,10.3177126 58.4192474,10.0145516 C58.0876441,9.71139062 57.8200385,9.32928717 57.6164224,8.86822981 C57.4128063,8.40717244 57.3109998,7.82296468 57.3109998,7.115589 C57.3109998,6.40821332 57.4186238,5.76716373 57.6338751,5.19242099 C57.8491264,4.61767824 58.1516371,4.125049 58.5414165,3.71451847 C58.9311958,3.30398794 59.408232,2.98504208 59.9725393,2.75767133 C60.5368467,2.53030057 61.168047,2.4166169 61.8661593,2.4166169 C62.5177307,2.4166169 63.1983799,2.51451118 63.9081273,2.71030266 C64.6178747,2.90609414 65.2985239,3.1934612 65.9500953,3.57241246 L64.5887833,6.47137509 Z M74.030413,5.95979345 L74.030413,17.1009047 L70.6096802,17.1009047 L70.6096802,5.95979345 L67.7997926,5.95979345 L67.7997926,2.81451373 L76.8403006,2.81451373 L76.8403006,5.95979345 L74.030413,5.95979345 Z M81.3253583,9.95770922 C81.3253583,10.5261361 81.424256,11.0503442 81.6220545,11.5303491 C81.8198529,12.010354 82.0874586,12.4271941 82.4248795,12.780882 C82.7623004,13.1345698 83.1549827,13.4093054 83.602938,13.6050968 C84.0508933,13.8008883 84.5250208,13.8987826 85.0253345,13.8987826 C85.5256483,13.8987826 85.9997757,13.8008883 86.4477311,13.6050968 C86.8956864,13.4093054 87.2912774,13.1345698 87.6345159,12.780882 C87.9777544,12.4271941 88.2482688,12.010354 88.4460673,11.5303491 C88.6438658,11.0503442 88.7427635,10.5261361 88.7427635,9.95770922 C88.7427635,9.38928234 88.6438658,8.86507429 88.4460673,8.38506937 C88.2482688,7.90506444 87.9777544,7.48822431 87.6345159,7.13453647 C87.2912774,6.78084863 86.8956864,6.50611309 86.4477311,6.31032161 C85.9997757,6.11453012 85.5256483,6.01663585 85.0253345,6.01663585 C84.5250208,6.01663585 84.0508933,6.11453012 83.602938,6.31032161 C83.1549827,6.50611309 82.7623004,6.78084863 82.4248795,7.13453647 C82.0874586,7.48822431 81.8198529,7.90506444 81.6220545,8.38506937 C81.424256,8.86507429 81.3253583,9.38928234 81.3253583,9.95770922 Z M77.747551,9.95770922 C77.747551,8.8966457 77.927894,7.90822933 78.2885853,6.99243046 C78.6492766,6.07663159 79.1495829,5.277688 79.7895191,4.59557574 C80.4294553,3.91346348 81.1944584,3.37978179 82.0845515,2.99451468 C82.9746446,2.60924757 83.9548958,2.4166169 85.0253345,2.4166169 C86.0841381,2.4166169 87.0614805,2.60924757 87.9573912,2.99451468 C88.8533019,3.37978179 89.6241225,3.91346348 90.2698763,4.59557574 C90.9156301,5.277688 91.4188452,6.07663159 91.7795365,6.99243046 C92.1402278,7.90822933 92.3205707,8.8966457 92.3205707,9.95770922 C92.3205707,11.0187727 92.1402278,12.0071891 91.7795365,12.922988 C91.4188452,13.8387869 90.9156301,14.6377304 90.2698763,15.3198427 C89.6241225,16.001955 88.8533019,16.5356367 87.9573912,16.9209038 C87.0614805,17.3061709 86.0841381,17.4988015 85.0253345,17.4988015 C83.9548958,17.4988015 82.9746446,17.3061709 82.0845515,16.9209038 C81.1944584,16.5356367 80.4294553,16.001955 79.7895191,15.3198427 C79.1495829,14.6377304 78.6492766,13.8387869 78.2885853,12.922988 C77.927894,12.0071891 77.747551,11.0187727 77.747551,9.95770922 Z M104.188128,7.58927571 C103.396934,6.54084389 102.419592,6.01663585 101.256072,6.01663585 C100.744123,6.01663585 100.269995,6.117688 99.833675,6.31979534 C99.3973549,6.52190268 99.0221252,6.79663822 98.7079747,7.1440102 C98.3938242,7.49138219 98.1465798,7.90506444 97.9662342,8.38506937 C97.7858885,8.86507429 97.695717,9.38296658 97.695717,9.93876176 C97.695717,10.5071886 97.7858885,11.0313967 97.9662342,11.5114016 C98.1465798,11.9914065 98.396733,12.4082467 98.7167011,12.7619345 C99.0366692,13.1156223 99.4118988,13.3935158 99.8424014,13.5956231 C100.272904,13.7977304 100.738305,13.8987826 101.238619,13.8987826 C102.332328,13.8987826 103.315488,13.3935218 104.188128,12.3829851 L104.188128,16.7787978 L103.839074,16.91143 C103.31549,17.1135374 102.826818,17.2619577 102.373046,17.3566955 C101.919273,17.4514333 101.471324,17.4988015 101.029186,17.4988015 C100.12164,17.4988015 99.2519219,17.3124866 98.4200049,16.9398512 C97.5880878,16.5672158 96.855081,16.0430078 96.2209624,15.3672114 C95.5868438,14.691415 95.0778112,13.8893135 94.6938495,12.9608829 C94.3098878,12.0324523 94.1179098,11.0187729 94.1179098,9.91981429 C94.1179098,8.82085564 94.306979,7.81349199 94.6851232,6.89769312 C95.0632673,5.98189425 95.569391,5.1924243 96.2035096,4.5292596 C96.8376282,3.8660949 97.5735438,3.34820262 98.4112785,2.97556721 C99.2490132,2.60293181 100.127458,2.4166169 101.046639,2.4166169 C101.570223,2.4166169 102.085073,2.47661662 102.591204,2.59661785 C103.097336,2.71661908 103.629638,2.90293399 104.188128,3.15556816 L104.188128,7.58927571 Z M111.116566,8.70717633 L115.287766,2.81451373 L119.511324,2.81451373 L114.292961,9.57875986 L120,17.1009047 L115.56701,17.1009047 L111.116566,10.9050826 L111.116566,17.1009047 L107.695834,17.1009047 L107.695834,2.81451373 L111.116566,2.81451373 L111.116566,8.70717633 Z M5.75698271,15.7500355 L17.270919,15.7500355 L17.270919,13.5000711 L19.5737179,13.5000711 L19.5737179,15.7500355 C19.5737179,16.9920421 18.5409097,18 17.270919,18 L5.75698271,18 C4.48699204,18 3.45418381,16.9920421 3.45418381,15.7500355 L3.45418381,11.2499645 L-5.15143483e-14,11.2499645 L4.60558326,6.75003553 L9.21116651,11.2499645 L5.75698271,11.2499645 L5.75698271,15.7500355 Z M3.45418381,2.24996447 C3.45418381,1.00795794 4.48699204,0 5.75698271,0 L17.270919,0 C18.5409097,0 19.5737179,1.00795794 19.5737179,2.24996447 L19.5737179,6.75003553 L23.0279017,6.75003553 L18.4223185,11.2499645 L13.8167352,6.75003553 L17.270919,6.75003553 L17.270919,2.24996447 L5.75698271,2.24996447 L5.75698271,4.49992895 L3.45418381,4.49992895 L3.45418381,2.24996447 Z" id="Logo/Instock"></path>
            </g>
        </g>
    </g>
</svg>