<?xml version="1.0" encoding="UTF-8"?>
<svg width="4px" height="20px" viewBox="0 0 4 20" version="1.1" xmlns="http://www.w3.org/2000/svg" xmlns:xlink="http://www.w3.org/1999/xlink">
    <!-- Generator: Sketch 52.5 (67469) - http://www.bohemiancoding.com/sketch -->
    <title>Icon-kebab-default</title>
    <desc>Created with Sketch.</desc>
    <g id="InStock" stroke="none" stroke-width="1" fill="none" fill-rule="evenodd">
        <g id="Icon/Kebab/Default" fill="#AFAFAF">
            <g transform="translate(2.000000, 10.000000) rotate(90.000000) translate(-2.000000, -10.000000) translate(-8.000000, 8.000000)">
                <path d="M2,4 C0.8952,4 0,3.10456 0,2 C0,0.89544 0.8952,0 2,0 C3.1048,0 4,0.89544 4,2 C4,3.10456 3.1048,4 2,4 Z M10,4 C8.8952,4 8,3.10456 8,2 C8,0.89544 8.8952,0 10,0 C11.1048,0 12,0.89544 12,2 C12,3.10456 11.1048,4 10,4 Z M18,4 C16.8952,4 16,3.10456 16,2 C16,0.89544 16.8952,0 18,0 C19.1048,0 20,0.89544 20,2 C20,3.10456 19.1048,4 18,4 Z"></path>
            </g>
        </g>
    </g>
</svg>